HIERARCHY
ROOT Hips
{
	OFFSET 0.000000 0.000000 0.000000
	CHANNELS 6 Xposition Yposition Zposition Xrotation Yrotation Zrotation
	JOINT Spine
	{
		OFFSET 0.000000 0.053497 0.080245
		CHANNELS 3 Xrotation Yrotation Zrotation
		JOINT Spine1
		{
			OFFSET 0.000000 0.018579 0.105368
			CHANNELS 3 Xrotation Yrotation Zrotation
			JOINT Spine2
			{
				OFFSET 0.000000 0.009325 0.106586
				CHANNELS 3 Xrotation Yrotation Zrotation
				JOINT Spine3
				{
					OFFSET 0.000000 0.000000 0.106993
					CHANNELS 3 Xrotation Yrotation Zrotation
					JOINT Neck
					{
						OFFSET 0.000000 -0.040123 0.280858
						CHANNELS 3 Xrotation Yrotation Zrotation
						JOINT Head
						{
							OFFSET 0.000000 -0.025547 0.144881
							CHANNELS 3 Xrotation Yrotation Zrotation
							End Site
							{
								OFFSET 0.000000 0.000000 0.000000
							}
						}
					}
					JOINT RightShoulder
					{
						OFFSET -0.032541 -0.054235 0.175720
						CHANNELS 3 Xrotation Yrotation Zrotation
						JOINT RightArm
						{
							OFFSET -0.161619 -0.000000 0.000000
							CHANNELS 3 Xrotation Yrotation Zrotation
							JOINT RightForeArm
							{
								OFFSET -0.257104 -0.000000 0.000000
								CHANNELS 3 Xrotation Yrotation Zrotation
								JOINT RightHand
								{
									OFFSET -0.273485 -0.000000 0.000000
									CHANNELS 3 Xrotation Yrotation Zrotation
									JOINT RightHandEnd
									{
										OFFSET -0.070844 -0.000000 0.000000
										CHANNELS 3 Xrotation Yrotation Zrotation
										End Site
										{
											OFFSET 0.000000 0.000000 0.000000
										}
									}
									JOINT RightHandThumb1
									{
										OFFSET -0.028338 -0.047230 -0.018892
										CHANNELS 3 Xrotation Yrotation Zrotation
										End Site
										{
											OFFSET 0.000000 0.000000 0.000000
										}
									}
								}
							}
						}
					}
					JOINT LeftShoulder
					{
						OFFSET 0.032541 -0.054235 0.175720
						CHANNELS 3 Xrotation Yrotation Zrotation
						JOINT LeftArm
						{
							OFFSET 0.161619 0.000000 0.000000
							CHANNELS 3 Xrotation Yrotation Zrotation
							JOINT LeftForeArm
							{
								OFFSET 0.257104 0.000000 0.000000
								CHANNELS 3 Xrotation Yrotation Zrotation
								JOINT LeftHand
								{
									OFFSET 0.273485 0.000000 0.000000
									CHANNELS 3 Xrotation Yrotation Zrotation
									JOINT LeftHandEnd
									{
										OFFSET 0.070844 0.000000 0.000000
										CHANNELS 3 Xrotation Yrotation Zrotation
										End Site
										{
											OFFSET 0.000000 0.000000 0.000000
										}
									}
									JOINT LeftHandThumb1
									{
										OFFSET 0.028338 -0.047230 -0.018892
										CHANNELS 3 Xrotation Yrotation Zrotation
										End Site
										{
											OFFSET 0.000000 0.000000 0.000000
										}
									}
								}
							}
						}
					}
				}
			}
		}
	}
	JOINT RightUpLeg
	{
		OFFSET -0.096537 0.000000 -0.028202
		CHANNELS 3 Xrotation Yrotation Zrotation
		JOINT RightLeg
		{
			OFFSET 0.000000 0.000000 -0.431842
			CHANNELS 3 Xrotation Yrotation Zrotation
			JOINT RightFoot
			{
				OFFSET 0.000000 0.000000 -0.456398
				CHANNELS 3 Xrotation Yrotation Zrotation
				JOINT RightToeBase
				{
					OFFSET 0.000000 -0.128905 -0.046918
					CHANNELS 3 Xrotation Yrotation Zrotation
					End Site
					{
						OFFSET 0.000000 0.000000 0.000000
					}
				}
			}
		}
	}
	JOINT LeftUpLeg
	{
		OFFSET 0.096537 0.000000 -0.028202
		CHANNELS 3 Xrotation Yrotation Zrotation
		JOINT LeftLeg
		{
			OFFSET 0.000000 0.000000 -0.431842
			CHANNELS 3 Xrotation Yrotation Zrotation
			JOINT LeftFoot
			{
				OFFSET 0.000000 0.000000 -0.456398
				CHANNELS 3 Xrotation Yrotation Zrotation
				JOINT LeftToeBase
				{
					OFFSET 0.000000 -0.128905 -0.046918
					CHANNELS 3 Xrotation Yrotation Zrotation
					End Site
					{
						OFFSET 0.000000 0.000000 0.000000
					}
				}
			}
		}
	}
}
MOTION
Frames: 13
Frame Time: 0.033333
0.070675 -0.731937 0.959355 8.963400 -2.880000 -175.502000 7.398900 3.856900 -2.089400 3.216200 0.121700 -0.084300 3.808000 -3.619400 -0.951200 1.409800 -1.436100 1.510100 0.924100 -2.352600 1.655300 -7.442000 3.018400 3.137000 12.459000 -3.704400 6.569900 42.903700 -52.015300 45.520500 0.000000 0.000000 15.840100 -17.685400 5.548100 0.625900 0.000000 0.000000 0.000000 0.000000 0.000000 0.000000 13.199700 8.549200 -13.942000 43.188200 39.579300 -48.238800 0.000000 0.000000 -21.404500 -15.592900 -14.465000 3.941100 0.000000 0.000000 0.000000 0.000000 0.000000 0.000000 -40.476800 2.433600 -1.871800 27.788500 0.000000 0.000000 -6.214400 -0.350100 -6.353700 -13.160900 0.000000 0.000000 -1.630600 3.819500 -6.494700 23.768400 0.000000 0.000000 -18.309400 10.609600 14.511200 11.768100 0.000000 0.000000 
0.067795 -0.735259 0.959231 7.305400 -2.877300 -176.594900 6.504800 3.380500 -1.748600 2.779400 0.019200 -0.104400 3.739700 -3.790700 -0.842600 1.343300 -1.457500 1.516700 0.081600 -1.811600 2.311400 -7.074500 3.239700 3.510200 12.354100 -3.219400 6.823900 42.144900 -50.706500 45.686200 0.000000 0.000000 15.198300 -17.979900 5.407000 0.477500 0.000000 0.000000 0.000000 0.000000 0.000000 0.000000 13.356800 9.103500 -14.004000 42.727200 40.067500 -47.421600 0.000000 0.000000 -22.004500 -15.676100 -14.528500 3.627000 0.000000 0.000000 0.000000 0.000000 0.000000 0.000000 -36.998100 1.559100 0.295500 32.814900 0.000000 0.000000 -8.572400 0.577600 -7.960900 -12.633200 0.000000 0.000000 -3.396800 4.013300 -5.211800 23.554200 0.000000 0.000000 -18.073000 10.410600 14.284200 11.207300 0.000000 0.000000 
0.065004 -0.738073 0.959289 5.519300 -2.904300 -177.647400 5.544100 2.784800 -1.391600 2.336900 -0.090700 -0.121700 3.617900 -3.912700 -0.734200 1.270700 -1.462200 1.497300 -0.628900 -1.262300 2.962400 -6.626800 3.458700 3.816600 12.116700 -2.773500 7.169600 41.867800 -48.850200 46.405400 0.000000 0.000000 14.262200 -17.717700 4.746000 0.300400 0.000000 0.000000 0.000000 0.000000 0.000000 0.000000 13.429800 9.782400 -14.025000 42.169500 40.408400 -46.077900 0.000000 0.000000 -22.778800 -15.822300 -14.308600 2.987600 0.000000 0.000000 0.000000 0.000000 0.000000 0.000000 -32.737800 1.015000 0.606600 36.647900 0.000000 0.000000 -11.355600 1.807200 -9.627900 -12.472100 0.000000 0.000000 -5.208300 4.110500 -4.075000 23.245800 0.000000 0.000000 -17.938500 10.459300 14.162700 10.475000 0.000000 0.000000 
0.062588 -0.740857 0.959081 3.413400 -3.042800 -178.735100 4.454700 2.047000 -1.019300 1.835200 -0.216900 -0.128500 3.343900 -4.016300 -0.493600 1.188000 -1.481500 1.524300 -1.237000 -0.707800 3.512600 -6.048100 3.643800 3.951600 11.718400 -2.302100 7.737700 41.753400 -46.796000 47.189400 0.000000 0.000000 13.212800 -17.549500 3.840700 0.220900 0.000000 0.000000 0.000000 0.000000 0.000000 0.000000 13.389200 10.536100 -14.034100 41.608700 40.670700 -44.477100 0.000000 0.000000 -23.250600 -16.326000 -13.813600 1.992600 0.000000 0.000000 0.000000 0.000000 0.000000 0.000000 -28.046300 0.714100 -0.540500 39.022400 0.000000 0.000000 -14.251400 3.445100 -11.749400 -12.400300 0.000000 0.000000 -7.487800 4.122800 -3.376200 23.218300 0.000000 0.000000 -17.972100 10.315300 14.441600 9.842600 0.000000 0.000000 
0.060658 -0.743897 0.958601 0.987200 -3.221500 179.817300 3.267600 1.252200 -0.632600 1.272600 -0.357500 -0.108000 2.953500 -4.042900 0.139900 1.109500 -1.534900 1.665100 -1.924600 -0.283900 3.903600 -5.287300 3.746000 3.901600 11.249500 -1.856600 8.717400 41.637100 -44.434000 47.892000 0.000000 0.000000 12.067500 -17.969200 2.939300 0.119300 0.000000 0.000000 0.000000 0.000000 0.000000 0.000000 13.216200 11.325700 -14.019300 40.955800 41.017500 -42.734400 0.000000 0.000000 -23.080200 -17.590600 -13.190700 1.138100 0.000000 0.000000 0.000000 0.000000 0.000000 0.000000 -23.027800 0.489700 -2.406000 39.610200 0.000000 0.000000 -16.982800 5.316400 -13.975600 -12.246400 0.000000 0.000000 -10.260900 4.052300 -2.901200 23.505900 0.000000 0.000000 -18.166800 10.081100 15.129100 9.462500 0.000000 0.000000 
0.058969 -0.746829 0.958294 -1.556000 -3.300900 177.715500 2.088400 0.490700 -0.248600 0.695600 -0.549100 -0.045100 2.580300 -3.910600 1.368600 1.050700 -1.636400 1.952900 -2.815400 -0.028400 4.205200 -4.319300 3.759500 3.750900 10.710600 -1.615000 10.076600 41.322600 -41.609900 48.369600 0.000000 0.000000 10.910400 -18.663300 2.185100 -0.171400 0.000000 0.000000 0.000000 0.000000 0.000000 0.000000 12.922200 12.238000 -13.933300 40.006800 41.571000 -40.726800 0.000000 0.000000 -22.243400 -19.395800 -12.653000 1.022600 0.000000 0.000000 0.000000 0.000000 0.000000 0.000000 -17.383300 0.458000 -4.616900 37.819300 0.000000 0.000000 -19.072600 6.706600 -15.615200 -12.175100 0.000000 0.000000 -13.075900 3.919300 -2.438300 23.739300 0.000000 0.000000 -18.450100 9.827700 16.210900 9.132600 0.000000 0.000000 
0.057437 -0.749033 0.958545 -3.998700 -3.232300 175.105400 0.999300 -0.235800 0.099800 0.159900 -0.779700 0.047000 2.330400 -3.671500 3.067600 1.014800 -1.785900 2.360200 -3.903700 0.214300 4.542500 -3.130400 3.711400 3.582300 10.003500 -1.744600 11.591200 40.510500 -38.625600 48.308300 0.000000 0.000000 10.117800 -19.020500 1.726700 -0.520100 0.000000 0.000000 0.000000 0.000000 0.000000 0.000000 12.544700 13.373400 -13.747400 38.557300 42.366400 -38.144000 0.000000 0.000000 -21.074900 -21.267200 -12.442500 1.644500 0.000000 0.000000 0.000000 0.000000 0.000000 0.000000 -10.806600 0.968600 -7.564800 33.322000 0.000000 0.000000 -20.098900 6.555900 -15.718000 -12.213100 0.000000 0.000000 -15.509400 3.736800 -2.073300 23.603300 0.000000 0.000000 -18.632900 9.147600 17.678900 8.536300 0.000000 0.000000 
0.056627 -0.750156 0.959315 -6.142000 -3.107700 172.539500 0.118100 -0.931500 0.331500 -0.270000 -1.017100 0.140000 2.189300 -3.434200 4.854400 0.996900 -1.953400 2.794900 -5.127000 0.554200 4.952300 -1.782100 3.595700 3.410800 9.228200 -2.237300 13.017900 39.037100 -35.893300 47.733700 0.000000 0.000000 10.101000 -19.017900 1.711400 -0.528900 0.000000 0.000000 0.000000 0.000000 0.000000 0.000000 12.124200 14.639100 -13.453400 36.591400 43.304100 -34.813300 0.000000 0.000000 -19.998100 -23.115900 -12.655100 2.457600 0.000000 0.000000 0.000000 0.000000 0.000000 0.000000 -3.293600 2.063900 -11.969300 26.851000 0.000000 0.000000 -19.973100 4.635100 -13.191600 -12.244800 0.000000 0.000000 -17.433300 3.455100 -1.929500 23.215600 0.000000 0.000000 -18.615900 8.059100 19.192500 7.821200 0.000000 0.000000 
0.056916 -0.751149 0.960333 -8.115100 -2.982100 170.281100 -0.600000 -1.514300 0.425800 -0.571600 -1.322500 0.209900 2.054400 -3.225700 6.501900 0.992300 -2.081300 3.159700 -6.484500 0.926900 5.416800 -0.382600 3.431400 3.249100 8.543500 -2.855000 14.274000 37.180500 -33.477400 47.176500 0.000000 0.000000 10.888200 -19.101400 2.125300 0.078600 0.000000 0.000000 0.000000 0.000000 0.000000 0.000000 11.676800 15.866900 -13.050200 34.260400 44.273900 -30.902900 0.000000 0.000000 -19.114500 -25.167200 -13.137900 2.937200 0.000000 0.000000 0.000000 0.000000 0.000000 0.000000 4.238200 3.356800 -17.356100 20.446000 0.000000 0.000000 -18.994700 2.131300 -8.317500 -12.325000 0.000000 0.000000 -19.223900 3.009400 -1.905400 22.905000 0.000000 0.000000 -18.578900 7.309500 20.355700 7.507100 0.000000 0.000000 
0.057856 -0.753301 0.961880 -10.166000 -2.967700 168.033500 -1.227500 -2.078400 0.491600 -0.820300 -1.822700 0.243400 1.931500 -3.049600 8.058200 1.010000 -2.146900 3.431600 -8.034700 1.324800 6.036000 1.053800 3.336600 3.123900 7.955300 -3.136200 15.453300 35.459000 -31.335800 47.237300 0.000000 0.000000 12.099200 -19.449800 2.902600 1.238100 0.000000 0.000000 0.000000 0.000000 0.000000 0.000000 11.252900 17.020100 -12.573300 31.670300 45.383200 -26.798400 0.000000 0.000000 -18.146700 -27.557200 -13.678400 2.969700 0.000000 0.000000 0.000000 0.000000 0.000000 0.000000 10.582800 4.519700 -21.272900 16.055300 0.000000 0.000000 -17.896600 0.581800 -3.887000 -12.486000 0.000000 0.000000 -21.147100 2.198400 -1.830400 22.659100 0.000000 0.000000 -18.551300 6.943800 21.290600 7.546600 0.000000 0.000000 
0.058550 -0.756435 0.964169 -12.240400 -3.070000 165.653500 -1.744800 -2.702300 0.621300 -1.022000 -2.493000 0.240700 1.893300 -2.968700 9.473200 1.055200 -2.197400 3.646300 -9.707900 1.831500 6.911900 2.425300 3.429600 3.031700 7.366600 -2.618700 16.647600 34.241000 -29.664800 48.175800 0.000000 0.000000 13.317400 -19.910400 4.046700 2.669900 0.000000 0.000000 0.000000 0.000000 0.000000 0.000000 11.065100 17.911400 -12.108600 29.040300 46.942400 -23.150000 0.000000 0.000000 -16.788400 -30.123800 -14.205400 2.835800 0.000000 0.000000 0.000000 0.000000 0.000000 0.000000 15.552200 5.767200 -22.396200 13.878600 0.000000 0.000000 -17.070600 0.038300 -2.124700 -12.628300 0.000000 0.000000 -22.931200 1.075300 -1.670000 22.158800 0.000000 0.000000 -18.123400 5.965900 22.216600 7.091500 0.000000 0.000000 
0.058887 -0.759658 0.966734 -14.073400 -3.224900 163.597400 -2.066800 -3.348500 0.832500 -1.129800 -3.078400 0.222700 1.945900 -3.054200 10.442600 1.105300 -2.267500 3.806200 -11.349500 2.329700 7.834400 3.491500 3.685300 2.974600 6.790500 -1.394200 17.753200 33.493800 -28.494100 49.790800 0.000000 0.000000 14.319300 -20.304300 5.319600 4.056000 0.000000 0.000000 0.000000 0.000000 0.000000 0.000000 11.245900 18.188600 -11.779600 27.094300 49.043000 -20.739400 0.000000 0.000000 -15.041500 -32.190400 -14.593700 2.907400 0.000000 0.000000 0.000000 0.000000 0.000000 0.000000 19.796800 7.165700 -22.297700 12.789100 0.000000 0.000000 -16.290700 -0.508700 -2.135500 -12.711000 0.000000 0.000000 -24.274200 -0.036500 -1.536000 21.386000 0.000000 0.000000 -17.237000 4.453600 22.226000 5.725300 0.000000 0.000000 
0.059019 -0.762602 0.968967 -15.535900 -3.359000 162.246200 -2.169300 -3.978900 1.078500 -1.101800 -3.431000 0.208500 1.992300 -3.185100 10.904000 1.134400 -2.321300 3.887600 -12.870300 2.546100 8.438700 4.116100 3.980100 3.006100 6.365200 -0.097200 18.519800 32.975500 -27.422800 51.675100 0.000000 0.000000 14.962700 -20.338600 6.273200 5.111400 0.000000 0.000000 0.000000 0.000000 0.000000 0.000000 11.682100 17.789600 -11.572900 26.832200 51.319900 -20.276700 0.000000 0.000000 -13.115600 -32.740100 -14.515900 3.308000 0.000000 0.000000 0.000000 0.000000 0.000000 0.000000 23.595000 8.576400 -22.676900 12.056600 0.000000 0.000000 -15.637700 -1.046300 -2.257200 -12.872000 0.000000 0.000000 -25.158700 -0.749300 -1.994000 20.545800 0.000000 0.000000 -16.589700 4.031100 19.970200 4.630400 0.000000 0.000000 
